# xmcd
#
# Track frame offsets:
# 150
# 16172
# 34385
# 57412
# 73725
# 90392
# 116000
# 132245
# 150910
# 171050
# 203935
# 220297
# 245462
# 267860
# 303432
#
# Disc length: 4483 seconds
#
#
# Revision: 3
# Processed by: cddbd v1.5.2PL0 Copyright (c) Steve Scherf et al.
# Submitted via: FreeRIP 2.951 
#
DISCID=ce11810f
DTITLE=Philipp Fankhauser - His Kind of Blues
DYEAR=1996
DGENRE=Blues
TTITLE0=Ain't Gonna Give It Up
TTITLE1=Talk to Me
TTITLE2=Members Only
TTITLE3=Giving Up the Streets for Love
TTITLE4=Excuses
TTITLE5=My Kind of Blues
TTITLE6=Dedicated
TTITLE7=Rainy Night in Georgia
TTITLE8=Everything I Do is Wrong
TTITLE9=If Blues can Change the World ''Blues for Mikhail Gorbachev''
TTITLE10=Wow, You must be Crazy!
TTITLE11=1000 Years from Here
TTITLE12=Blues According to John Lee Hooker, and to My Feelings the Evening of August 28, 1994
TTITLE13=Thun - San Francisco
TTITLE14=Black Cat Bone
EXTD=YEAR: 1996
EXTT0=
EXTT1=
EXTT2=
EXTT3=
EXTT4=
EXTT5=
EXTT6=
EXTT7=
EXTT8=
EXTT9=
EXTT10=
EXTT11=
EXTT12=
EXTT13=
EXTT14=
PLAYORDER=
